# xmcd
#
# Track frame offsets: 
#        150
#        17262
#        34898
#        53821
#        68134
#        83985
#        100832
#        115904
#        132551
#        148945
#        169531
#        184791
#        198732
#
# Disc length: 2885 seconds
#
# Revision: 0
# Processed by: cddbd v1.5.2PL0 Copyright (c) Steve Scherf et al.
# Submitted via: ExactAudioCopy v0.95b4
#
DISCID=b70b430d
DTITLE=Взгляни На Небо - Дыши
DYEAR=2006
DGENRE=Pop
TTITLE0=Взгляни На Небо
TTITLE1=Давай Забудем Обо Всем
TTITLE2=Дождь
TTITLE3=Остановись
TTITLE4=Новые Люди
TTITLE5=Территория Планет
TTITLE6=Крик
TTITLE7=Лети Высоко
TTITLE8=Движение
TTITLE9=Город Мой
TTITLE10=Проект "Дыши"
TTITLE11=Она
TTITLE12=Давай Забудем Обо Всем (Instrumental)
EXTD=
EXTT0=
EXTT1=
EXTT2=
EXTT3=
EXTT4=
EXTT5=
EXTT6=
EXTT7=
EXTT8=
EXTT9=
EXTT10=
EXTT11=
EXTT12=
PLAYORDER=
